<svg width="25" height="25" viewBox="0 0 25 25" fill="none" xmlns="http://www.w3.org/2000/svg">
<path d="M9.375 23.4375H3.125C2.71073 23.4371 2.31354 23.2723 2.0206 22.9794C1.72767 22.6865 1.56291 22.2893 1.5625 21.875V18.75C1.56291 18.3357 1.72767 17.9385 2.0206 17.6456C2.31354 17.3527 2.71073 17.1879 3.125 17.1875H9.375C9.78927 17.1879 10.1865 17.3527 10.4794 17.6456C10.7723 17.9385 10.9371 18.3357 10.9375 18.75V21.875C10.9371 22.2893 10.7723 22.6865 10.4794 22.9794C10.1865 23.2723 9.78927 23.4371 9.375 23.4375ZM3.125 18.75V21.875H9.375V18.75H3.125ZM21.875 15.625H9.375C8.96073 15.6246 8.56354 15.4598 8.2706 15.1669C7.97767 14.874 7.81291 14.4768 7.8125 14.0625V10.9375C7.81291 10.5232 7.97767 10.126 8.2706 9.8331C8.56354 9.54017 8.96073 9.37541 9.375 9.375H21.875C22.2893 9.37541 22.6865 9.54017 22.9794 9.8331C23.2723 10.126 23.4371 10.5232 23.4375 10.9375V14.0625C23.4371 14.4768 23.2723 14.874 22.9794 15.1669C22.6865 15.4598 22.2893 15.6246 21.875 15.625ZM9.375 10.9375V14.0625H21.875V10.9375H9.375ZM12.5 7.8125H3.125C2.71073 7.81209 2.31354 7.64733 2.0206 7.3544C1.72767 7.06146 1.56291 6.66427 1.5625 6.25V3.125C1.56291 2.71073 1.72767 2.31354 2.0206 2.0206C2.31354 1.72767 2.71073 1.56291 3.125 1.5625H12.5C12.9143 1.56291 13.3115 1.72767 13.6044 2.0206C13.8973 2.31354 14.0621 2.71073 14.0625 3.125V6.25C14.0621 6.66427 13.8973 7.06146 13.6044 7.3544C13.3115 7.64733 12.9143 7.81209 12.5 7.8125ZM3.125 3.125V6.25H12.5V3.125H3.125Z" fill="#868689"/>
</svg>
