<svg width="25" height="25" viewBox="0 0 25 25" fill="none" xmlns="http://www.w3.org/2000/svg">
<path d="M20.1221 17.0874C19.511 16.4758 18.797 15.9766 18.0128 15.6128C19.1187 14.7168 19.8243 13.3496 19.8243 11.8164C19.8243 9.11129 17.5684 6.89205 14.8633 6.93356C12.1998 6.97506 10.0538 9.14547 10.0538 11.8164C10.0538 13.3496 10.7618 14.7168 11.8653 15.6128C11.0809 15.9764 10.3668 16.4755 9.75592 17.0874C8.42291 18.4228 7.66608 20.1855 7.61725 22.0654C7.6166 22.0914 7.62117 22.1174 7.63069 22.1416C7.64021 22.1659 7.6545 22.188 7.6727 22.2067C7.6909 22.2253 7.71265 22.2401 7.73667 22.2503C7.76069 22.2604 7.7865 22.2656 7.81256 22.2656H9.17975C9.28473 22.2656 9.37262 22.1826 9.37506 22.0776C9.42145 20.6616 9.99518 19.3359 11.0035 18.33C11.5194 17.8113 12.1332 17.4001 12.8091 17.1202C13.4851 16.8402 14.2098 16.6971 14.9415 16.6992C16.4283 16.6992 17.8272 17.2778 18.8795 18.33C19.8853 19.3359 20.459 20.6616 20.5079 22.0776C20.5103 22.1826 20.5982 22.2656 20.7032 22.2656H22.0704C22.0964 22.2656 22.1222 22.2604 22.1463 22.2503C22.1703 22.2401 22.192 22.2253 22.2102 22.2067C22.2284 22.188 22.2427 22.1659 22.2522 22.1416C22.2618 22.1174 22.2663 22.0914 22.2657 22.0654C22.2169 20.1855 21.46 18.4228 20.1221 17.0874ZM14.9415 14.9414C14.1065 14.9414 13.3204 14.6167 12.732 14.0258C12.4367 13.7329 12.2035 13.3835 12.0462 12.9984C11.8889 12.6133 11.8108 12.2005 11.8165 11.7846C11.8238 10.9838 12.1436 10.2099 12.7027 9.63619C13.2886 9.03561 14.0723 8.70113 14.9097 8.69137C15.7374 8.68404 16.5406 9.00631 17.1314 9.58492C17.7369 10.1782 18.0689 10.9716 18.0689 11.8164C18.0689 12.6513 17.7442 13.435 17.1534 14.0258C16.8635 14.3171 16.5188 14.548 16.1391 14.7051C15.7594 14.8623 15.3524 14.9426 14.9415 14.9414ZM8.82574 12.4609C8.80377 12.2485 8.79157 12.0337 8.79157 11.8164C8.79157 11.4282 8.82819 11.0498 8.89655 10.6811C8.91364 10.5932 8.86725 10.5029 8.78668 10.4663C8.45465 10.3173 8.14948 10.1123 7.8858 9.85348C7.57511 9.55223 7.33062 9.18952 7.16794 8.7885C7.00527 8.38747 6.92797 7.95694 6.94098 7.52438C6.96295 6.74069 7.27789 5.99606 7.82721 5.43453C8.43024 4.81686 9.24078 4.47994 10.1026 4.48971C10.8814 4.49703 11.6334 4.79733 12.2022 5.32955C12.3951 5.51022 12.5611 5.71041 12.7003 5.92526C12.7491 6.00094 12.8443 6.03268 12.9273 6.00338C13.357 5.85445 13.8111 5.74947 14.2774 5.70065C14.4141 5.686 14.4922 5.53951 14.4312 5.41744C13.6378 3.84762 12.0167 2.76363 10.1417 2.73434C7.43414 2.69283 5.17828 4.91207 5.17828 7.61471C5.17828 9.14791 5.88385 10.5151 6.98981 11.4111C6.21344 11.77 5.49811 12.2656 4.87799 12.8857C3.5401 14.2212 2.78326 15.9838 2.73444 17.8662C2.73378 17.8922 2.73835 17.9182 2.74788 17.9424C2.7574 17.9667 2.77168 17.9888 2.78989 18.0074C2.80809 18.0261 2.82984 18.0409 2.85386 18.051C2.87788 18.0612 2.90368 18.0664 2.92975 18.0664H4.29938C4.40436 18.0664 4.49225 17.9834 4.49469 17.8784C4.54108 16.4624 5.11481 15.1367 6.12311 14.1308C6.84088 13.413 7.71979 12.915 8.67926 12.6733C8.77448 12.6489 8.83795 12.5586 8.82574 12.4609Z" fill="#868689"/>
</svg>
