<svg width="24" height="24" viewBox="0 0 24 24" fill="none" xmlns="http://www.w3.org/2000/svg">
<path d="M12 2.75005C11.5346 2.74991 11.0806 2.89409 10.7006 3.16274C10.3205 3.43138 10.0331 3.81126 9.878 4.25005C9.80937 4.43448 9.671 4.58454 9.49273 4.66788C9.31447 4.75122 9.11059 4.76116 8.92506 4.69556C8.73954 4.62996 8.58723 4.49407 8.50097 4.31719C8.41472 4.14032 8.40144 3.93663 8.464 3.75005C8.72276 3.01906 9.20171 2.38622 9.83494 1.93864C10.4682 1.49106 11.2246 1.25073 12 1.25073C12.7754 1.25073 13.5318 1.49106 14.1651 1.93864C14.7983 2.38622 15.2772 3.01906 15.536 3.75005C15.5986 3.93663 15.5853 4.14032 15.499 4.31719C15.4128 4.49407 15.2605 4.62996 15.0749 4.69556C14.8894 4.76116 14.6855 4.75122 14.5073 4.66788C14.329 4.58454 14.1906 4.43448 14.122 4.25005C13.9667 3.81135 13.6793 3.43155 13.2993 3.16292C12.9193 2.8943 12.4654 2.75006 12 2.75005ZM2.75 6.00005C2.75 5.80114 2.82902 5.61037 2.96967 5.46972C3.11032 5.32907 3.30109 5.25005 3.5 5.25005H20.5C20.6989 5.25005 20.8897 5.32907 21.0303 5.46972C21.171 5.61037 21.25 5.80114 21.25 6.00005C21.25 6.19896 21.171 6.38973 21.0303 6.53038C20.8897 6.67103 20.6989 6.75005 20.5 6.75005H3.5C3.30109 6.75005 3.11032 6.67103 2.96967 6.53038C2.82902 6.38973 2.75 6.19896 2.75 6.00005ZM5.915 8.45005C5.90174 8.25154 5.81016 8.06642 5.66041 7.93543C5.51067 7.80443 5.31501 7.73829 5.1165 7.75155C4.91799 7.76481 4.73287 7.85639 4.60188 8.00614C4.47088 8.15589 4.40474 8.35154 4.418 8.55005L4.882 15.5021C4.967 16.7841 5.036 17.8201 5.198 18.6341C5.367 19.4791 5.653 20.1851 6.245 20.7381C6.836 21.2921 7.56 21.5311 8.415 21.6421C9.237 21.7501 10.275 21.7501 11.561 21.7501H12.44C13.725 21.7501 14.764 21.7501 15.586 21.6421C16.44 21.5311 17.164 21.2921 17.756 20.7381C18.347 20.1851 18.633 19.4781 18.802 18.6341C18.964 17.8201 19.032 16.7841 19.118 15.5021L19.582 8.55005C19.5953 8.35154 19.5291 8.15589 19.3981 8.00614C19.2671 7.85639 19.082 7.76481 18.8835 7.75155C18.685 7.73829 18.4893 7.80443 18.3396 7.93543C18.1898 8.06642 18.0983 8.25154 18.085 8.45005L17.625 15.3501C17.535 16.6971 17.471 17.6351 17.331 18.3401C17.194 19.0251 17.004 19.3871 16.731 19.6431C16.457 19.8991 16.083 20.0651 15.391 20.1551C14.678 20.2481 13.738 20.2501 12.387 20.2501H11.613C10.263 20.2501 9.323 20.2481 8.609 20.1551C7.917 20.0651 7.543 19.8991 7.269 19.6431C6.996 19.3871 6.806 19.0251 6.669 18.3401C6.529 17.6351 6.465 16.6971 6.375 15.3501L5.915 8.45005Z" fill="black"/>
<path d="M9.42523 10.2541C9.62307 10.2343 9.82068 10.2938 9.97464 10.4196C10.1286 10.5455 10.2263 10.7273 10.2462 10.9251L10.7462 15.9251C10.7609 16.1202 10.6987 16.3133 10.573 16.4632C10.4473 16.6131 10.268 16.7079 10.0734 16.7275C9.87871 16.7471 9.68411 16.6898 9.53109 16.5679C9.37806 16.446 9.27871 16.2692 9.25423 16.0751L8.75423 11.0751C8.7344 10.8773 8.79395 10.6797 8.91977 10.5257C9.0456 10.3717 9.2274 10.2741 9.42523 10.2541ZM15.2462 11.0751C15.2609 10.88 15.1987 10.6869 15.073 10.537C14.9473 10.3871 14.768 10.2923 14.5734 10.2727C14.3787 10.2532 14.1841 10.3104 14.0311 10.4323C13.8781 10.5542 13.7787 10.731 13.7542 10.9251L13.2542 15.9251C13.2396 16.1202 13.3017 16.3133 13.4274 16.4632C13.5532 16.6131 13.7325 16.7079 13.9271 16.7275C14.1218 16.7471 14.3163 16.6898 14.4694 16.5679C14.6224 16.446 14.7217 16.2692 14.7462 16.0751L15.2462 11.0751Z" fill="black"/>
</svg>
