<svg width="30" height="30" viewBox="0 0 30 30" fill="none" xmlns="http://www.w3.org/2000/svg">
<circle cx="15" cy="15" r="14.5" stroke="#F8CC33"/>
<path d="M18.75 4.5C18.75 5.07305 18.3777 5.62968 17.6959 6.05577C17.0177 6.47965 16.0652 6.75 15 6.75C13.9348 6.75 12.9823 6.47965 12.3041 6.05577C11.6223 5.62968 11.25 5.07305 11.25 4.5C11.25 3.92695 11.6223 3.37032 12.3041 2.94423C12.9823 2.52035 13.9348 2.25 15 2.25C16.0652 2.25 17.0177 2.52035 17.6959 2.94423C18.3777 3.37032 18.75 3.92695 18.75 4.5Z" fill="#F8CC33" stroke="#040214" stroke-width="0.5"/>
<path d="M14.75 6.5C14.75 7.07305 14.3777 7.62968 13.6959 8.05577C13.0177 8.47965 12.0652 8.75 11 8.75C9.93479 8.75 8.98229 8.47965 8.30407 8.05577C7.62233 7.62968 7.25 7.07305 7.25 6.5C7.25 5.92695 7.62233 5.37032 8.30407 4.94423C8.98229 4.52035 9.93479 4.25 11 4.25C12.0652 4.25 13.0177 4.52035 13.6959 4.94423C14.3777 5.37032 14.75 5.92695 14.75 6.5Z" fill="#F8CC33" stroke="#040214" stroke-width="0.5"/>
<path d="M10.75 9.5C10.75 10.0731 10.3777 10.6297 9.69593 11.0558C9.01771 11.4797 8.06521 11.75 7 11.75C5.93479 11.75 4.98229 11.4797 4.30407 11.0558C3.62233 10.6297 3.25 10.0731 3.25 9.5C3.25 8.92695 3.62233 8.37032 4.30407 7.94423C4.98229 7.52035 5.93479 7.25 7 7.25C8.06521 7.25 9.01771 7.52035 9.69593 7.94423C10.3777 8.37032 10.75 8.92695 10.75 9.5Z" fill="#F8CC33" stroke="#040214" stroke-width="0.5"/>
<path d="M10.75 12.5C10.75 13.0731 10.3777 13.6297 9.69593 14.0558C9.01771 14.4797 8.06521 14.75 7 14.75C5.93479 14.75 4.98229 14.4797 4.30407 14.0558C3.62233 13.6297 3.25 13.0731 3.25 12.5C3.25 11.9269 3.62233 11.3703 4.30407 10.9442C4.98229 10.5203 5.93479 10.25 7 10.25C8.06521 10.25 9.01771 10.5203 9.69593 10.9442C10.3777 11.3703 10.75 11.9269 10.75 12.5Z" fill="#F8CC33" stroke="#040214" stroke-width="0.5"/>
<path d="M10.75 15.5C10.75 16.0731 10.3777 16.6297 9.69593 17.0558C9.01771 17.4797 8.06521 17.75 7 17.75C5.93479 17.75 4.98229 17.4797 4.30407 17.0558C3.62233 16.6297 3.25 16.0731 3.25 15.5C3.25 14.9269 3.62233 14.3703 4.30407 13.9442C4.98229 13.5203 5.93479 13.25 7 13.25C8.06521 13.25 9.01771 13.5203 9.69593 13.9442C10.3777 14.3703 10.75 14.9269 10.75 15.5Z" fill="#F8CC33" stroke="#040214" stroke-width="0.5"/>
<path d="M10.75 18.5C10.75 19.0731 10.3777 19.6297 9.69593 20.0558C9.01771 20.4797 8.06521 20.75 7 20.75C5.93479 20.75 4.98229 20.4797 4.30407 20.0558C3.62233 19.6297 3.25 19.0731 3.25 18.5C3.25 17.9269 3.62233 17.3703 4.30407 16.9442C4.98229 16.5203 5.93479 16.25 7 16.25C8.06521 16.25 9.01771 16.5203 9.69593 16.9442C10.3777 17.3703 10.75 17.9269 10.75 18.5Z" fill="#F8CC33" stroke="#040214" stroke-width="0.5"/>
<path d="M10.75 21.5C10.75 22.0731 10.3777 22.6297 9.69593 23.0558C9.01771 23.4797 8.06521 23.75 7 23.75C5.93479 23.75 4.98229 23.4797 4.30407 23.0558C3.62233 22.6297 3.25 22.0731 3.25 21.5C3.25 20.9269 3.62233 20.3703 4.30407 19.9442C4.98229 19.5203 5.93479 19.25 7 19.25C8.06521 19.25 9.01771 19.5203 9.69593 19.9442C10.3777 20.3703 10.75 20.9269 10.75 21.5Z" fill="#F8CC33" stroke="#040214" stroke-width="0.5"/>
<path d="M26.75 9.5C26.75 10.0731 26.3777 10.6297 25.6959 11.0558C25.0177 11.4797 24.0652 11.75 23 11.75C21.9348 11.75 20.9823 11.4797 20.3041 11.0558C19.6223 10.6297 19.25 10.0731 19.25 9.5C19.25 8.92695 19.6223 8.37032 20.3041 7.94423C20.9823 7.52035 21.9348 7.25 23 7.25C24.0652 7.25 25.0177 7.52035 25.6959 7.94423C26.3777 8.37032 26.75 8.92695 26.75 9.5Z" fill="#F8CC33" stroke="#040214" stroke-width="0.5"/>
<path d="M26.75 12.5C26.75 13.0731 26.3777 13.6297 25.6959 14.0558C25.0177 14.4797 24.0652 14.75 23 14.75C21.9348 14.75 20.9823 14.4797 20.3041 14.0558C19.6223 13.6297 19.25 13.0731 19.25 12.5C19.25 11.9269 19.6223 11.3703 20.3041 10.9442C20.9823 10.5203 21.9348 10.25 23 10.25C24.0652 10.25 25.0177 10.5203 25.6959 10.9442C26.3777 11.3703 26.75 11.9269 26.75 12.5Z" fill="#F8CC33" stroke="#040214" stroke-width="0.5"/>
<path d="M26.75 15.5C26.75 16.0731 26.3777 16.6297 25.6959 17.0558C25.0177 17.4797 24.0652 17.75 23 17.75C21.9348 17.75 20.9823 17.4797 20.3041 17.0558C19.6223 16.6297 19.25 16.0731 19.25 15.5C19.25 14.9269 19.6223 14.3703 20.3041 13.9442C20.9823 13.5203 21.9348 13.25 23 13.25C24.0652 13.25 25.0177 13.5203 25.6959 13.9442C26.3777 14.3703 26.75 14.9269 26.75 15.5Z" fill="#F8CC33" stroke="#040214" stroke-width="0.5"/>
<path d="M26.75 18.5C26.75 19.0731 26.3777 19.6297 25.6959 20.0558C25.0177 20.4797 24.0652 20.75 23 20.75C21.9348 20.75 20.9823 20.4797 20.3041 20.0558C19.6223 19.6297 19.25 19.0731 19.25 18.5C19.25 17.9269 19.6223 17.3703 20.3041 16.9442C20.9823 16.5203 21.9348 16.25 23 16.25C24.0652 16.25 25.0177 16.5203 25.6959 16.9442C26.3777 17.3703 26.75 17.9269 26.75 18.5Z" fill="#F8CC33" stroke="#040214" stroke-width="0.5"/>
<path d="M26.75 21.5C26.75 22.0731 26.3777 22.6297 25.6959 23.0558C25.0177 23.4797 24.0652 23.75 23 23.75C21.9348 23.75 20.9823 23.4797 20.3041 23.0558C19.6223 22.6297 19.25 22.0731 19.25 21.5C19.25 20.9269 19.6223 20.3703 20.3041 19.9442C20.9823 19.5203 21.9348 19.25 23 19.25C24.0652 19.25 25.0177 19.5203 25.6959 19.9442C26.3777 20.3703 26.75 20.9269 26.75 21.5Z" fill="#F8CC33" stroke="#040214" stroke-width="0.5"/>
<path d="M22.75 6.5C22.75 7.07305 22.3777 7.62968 21.6959 8.05577C21.0177 8.47965 20.0652 8.75 19 8.75C17.9348 8.75 16.9823 8.47965 16.3041 8.05577C15.6223 7.62968 15.25 7.07305 15.25 6.5C15.25 5.92695 15.6223 5.37032 16.3041 4.94423C16.9823 4.52035 17.9348 4.25 19 4.25C20.0652 4.25 21.0177 4.52035 21.6959 4.94423C22.3777 5.37032 22.75 5.92695 22.75 6.5Z" fill="#F8CC33" stroke="#040214" stroke-width="0.5"/>
<path d="M18.75 6.5C18.75 7.07305 18.3777 7.62968 17.6959 8.05577C17.0177 8.47965 16.0652 8.75 15 8.75C13.9348 8.75 12.9823 8.47965 12.3041 8.05577C11.6223 7.62968 11.25 7.07305 11.25 6.5C11.25 5.92695 11.6223 5.37032 12.3041 4.94423C12.9823 4.52035 13.9348 4.25 15 4.25C16.0652 4.25 17.0177 4.52035 17.6959 4.94423C18.3777 5.37032 18.75 5.92695 18.75 6.5Z" fill="#F8CC33" stroke="#040214" stroke-width="0.5"/>
<path d="M14.75 9.5C14.75 10.0731 14.3777 10.6297 13.6959 11.0558C13.0177 11.4797 12.0652 11.75 11 11.75C9.93479 11.75 8.98229 11.4797 8.30407 11.0558C7.62233 10.6297 7.25 10.0731 7.25 9.5C7.25 8.92695 7.62233 8.37032 8.30407 7.94423C8.98229 7.52035 9.93479 7.25 11 7.25C12.0652 7.25 13.0177 7.52035 13.6959 7.94423C14.3777 8.37032 14.75 8.92695 14.75 9.5Z" fill="#F8CC33" stroke="#040214" stroke-width="0.5"/>
<path d="M14.75 12.5C14.75 13.0731 14.3777 13.6297 13.6959 14.0558C13.0177 14.4797 12.0652 14.75 11 14.75C9.93479 14.75 8.98229 14.4797 8.30407 14.0558C7.62233 13.6297 7.25 13.0731 7.25 12.5C7.25 11.9269 7.62233 11.3703 8.30407 10.9442C8.98229 10.5203 9.93479 10.25 11 10.25C12.0652 10.25 13.0177 10.5203 13.6959 10.9442C14.3777 11.3703 14.75 11.9269 14.75 12.5Z" fill="#F8CC33" stroke="#040214" stroke-width="0.5"/>
<path d="M14.75 15.5C14.75 16.0731 14.3777 16.6297 13.6959 17.0558C13.0177 17.4797 12.0652 17.75 11 17.75C9.93479 17.75 8.98229 17.4797 8.30407 17.0558C7.62233 16.6297 7.25 16.0731 7.25 15.5C7.25 14.9269 7.62233 14.3703 8.30407 13.9442C8.98229 13.5203 9.93479 13.25 11 13.25C12.0652 13.25 13.0177 13.5203 13.6959 13.9442C14.3777 14.3703 14.75 14.9269 14.75 15.5Z" fill="#F8CC33" stroke="#040214" stroke-width="0.5"/>
<path d="M14.75 18.5C14.75 19.0731 14.3777 19.6297 13.6959 20.0558C13.0177 20.4797 12.0652 20.75 11 20.75C9.93479 20.75 8.98229 20.4797 8.30407 20.0558C7.62233 19.6297 7.25 19.0731 7.25 18.5C7.25 17.9269 7.62233 17.3703 8.30407 16.9442C8.98229 16.5203 9.93479 16.25 11 16.25C12.0652 16.25 13.0177 16.5203 13.6959 16.9442C14.3777 17.3703 14.75 17.9269 14.75 18.5Z" fill="#F8CC33" stroke="#040214" stroke-width="0.5"/>
<path d="M14.75 21.5C14.75 22.0731 14.3777 22.6297 13.6959 23.0558C13.0177 23.4797 12.0652 23.75 11 23.75C9.93479 23.75 8.98229 23.4797 8.30407 23.0558C7.62233 22.6297 7.25 22.0731 7.25 21.5C7.25 20.9269 7.62233 20.3703 8.30407 19.9442C8.98229 19.5203 9.93479 19.25 11 19.25C12.0652 19.25 13.0177 19.5203 13.6959 19.9442C14.3777 20.3703 14.75 20.9269 14.75 21.5Z" fill="#F8CC33" stroke="#040214" stroke-width="0.5"/>
<path d="M14.75 24C14.75 24.4066 14.4139 24.842 13.7166 25.1906C13.0343 25.5318 12.0742 25.75 11 25.75C9.92583 25.75 8.9657 25.5318 8.28338 25.1906C7.58609 24.842 7.25 24.4066 7.25 24C7.25 23.5934 7.58609 23.158 8.28338 22.8094C8.9657 22.4682 9.92583 22.25 11 22.25C12.0742 22.25 13.0343 22.4682 13.7166 22.8094C14.4139 23.158 14.75 23.5934 14.75 24Z" fill="#F8CC33" stroke="#040214" stroke-width="0.5"/>
<path d="M22.75 9.5C22.75 10.0731 22.3777 10.6297 21.6959 11.0558C21.0177 11.4797 20.0652 11.75 19 11.75C17.9348 11.75 16.9823 11.4797 16.3041 11.0558C15.6223 10.6297 15.25 10.0731 15.25 9.5C15.25 8.92695 15.6223 8.37032 16.3041 7.94423C16.9823 7.52035 17.9348 7.25 19 7.25C20.0652 7.25 21.0177 7.52035 21.6959 7.94423C22.3777 8.37032 22.75 8.92695 22.75 9.5Z" fill="#F8CC33" stroke="#040214" stroke-width="0.5"/>
<path d="M22.75 12.5C22.75 13.0731 22.3777 13.6297 21.6959 14.0558C21.0177 14.4797 20.0652 14.75 19 14.75C17.9348 14.75 16.9823 14.4797 16.3041 14.0558C15.6223 13.6297 15.25 13.0731 15.25 12.5C15.25 11.9269 15.6223 11.3703 16.3041 10.9442C16.9823 10.5203 17.9348 10.25 19 10.25C20.0652 10.25 21.0177 10.5203 21.6959 10.9442C22.3777 11.3703 22.75 11.9269 22.75 12.5Z" fill="#F8CC33" stroke="#040214" stroke-width="0.5"/>
<path d="M22.75 15.5C22.75 16.0731 22.3777 16.6297 21.6959 17.0558C21.0177 17.4797 20.0652 17.75 19 17.75C17.9348 17.75 16.9823 17.4797 16.3041 17.0558C15.6223 16.6297 15.25 16.0731 15.25 15.5C15.25 14.9269 15.6223 14.3703 16.3041 13.9442C16.9823 13.5203 17.9348 13.25 19 13.25C20.0652 13.25 21.0177 13.5203 21.6959 13.9442C22.3777 14.3703 22.75 14.9269 22.75 15.5Z" fill="#F8CC33" stroke="#040214" stroke-width="0.5"/>
<path d="M22.75 18.5C22.75 19.0731 22.3777 19.6297 21.6959 20.0558C21.0177 20.4797 20.0652 20.75 19 20.75C17.9348 20.75 16.9823 20.4797 16.3041 20.0558C15.6223 19.6297 15.25 19.0731 15.25 18.5C15.25 17.9269 15.6223 17.3703 16.3041 16.9442C16.9823 16.5203 17.9348 16.25 19 16.25C20.0652 16.25 21.0177 16.5203 21.6959 16.9442C22.3777 17.3703 22.75 17.9269 22.75 18.5Z" fill="#F8CC33" stroke="#040214" stroke-width="0.5"/>
<path d="M22.75 21.5C22.75 22.0731 22.3777 22.6297 21.6959 23.0558C21.0177 23.4797 20.0652 23.75 19 23.75C17.9348 23.75 16.9823 23.4797 16.3041 23.0558C15.6223 22.6297 15.25 22.0731 15.25 21.5C15.25 20.9269 15.6223 20.3703 16.3041 19.9442C16.9823 19.5203 17.9348 19.25 19 19.25C20.0652 19.25 21.0177 19.5203 21.6959 19.9442C22.3777 20.3703 22.75 20.9269 22.75 21.5Z" fill="#F8CC33" stroke="#040214" stroke-width="0.5"/>
<path d="M22.75 24C22.75 24.4066 22.4139 24.842 21.7166 25.1906C21.0343 25.5318 20.0742 25.75 19 25.75C17.9258 25.75 16.9657 25.5318 16.2834 25.1906C15.5861 24.842 15.25 24.4066 15.25 24C15.25 23.5934 15.5861 23.158 16.2834 22.8094C16.9657 22.4682 17.9258 22.25 19 22.25C20.0742 22.25 21.0343 22.4682 21.7166 22.8094C22.4139 23.158 22.75 23.5934 22.75 24Z" fill="#F8CC33" stroke="#040214" stroke-width="0.5"/>
<path d="M18.75 9.5C18.75 10.0731 18.3777 10.6297 17.6959 11.0558C17.0177 11.4797 16.0652 11.75 15 11.75C13.9348 11.75 12.9823 11.4797 12.3041 11.0558C11.6223 10.6297 11.25 10.0731 11.25 9.5C11.25 8.92695 11.6223 8.37032 12.3041 7.94423C12.9823 7.52035 13.9348 7.25 15 7.25C16.0652 7.25 17.0177 7.52035 17.6959 7.94423C18.3777 8.37032 18.75 8.92695 18.75 9.5Z" fill="#F8CC33" stroke="#040214" stroke-width="0.5"/>
<path d="M18.75 12.5C18.75 13.0731 18.3777 13.6297 17.6959 14.0558C17.0177 14.4797 16.0652 14.75 15 14.75C13.9348 14.75 12.9823 14.4797 12.3041 14.0558C11.6223 13.6297 11.25 13.0731 11.25 12.5C11.25 11.9269 11.6223 11.3703 12.3041 10.9442C12.9823 10.5203 13.9348 10.25 15 10.25C16.0652 10.25 17.0177 10.5203 17.6959 10.9442C18.3777 11.3703 18.75 11.9269 18.75 12.5Z" fill="#F8CC33" stroke="#040214" stroke-width="0.5"/>
<path d="M18.75 15.5C18.75 16.0731 18.3777 16.6297 17.6959 17.0558C17.0177 17.4797 16.0652 17.75 15 17.75C13.9348 17.75 12.9823 17.4797 12.3041 17.0558C11.6223 16.6297 11.25 16.0731 11.25 15.5C11.25 14.9269 11.6223 14.3703 12.3041 13.9442C12.9823 13.5203 13.9348 13.25 15 13.25C16.0652 13.25 17.0177 13.5203 17.6959 13.9442C18.3777 14.3703 18.75 14.9269 18.75 15.5Z" fill="#F8CC33" stroke="#040214" stroke-width="0.5"/>
<path d="M18.75 18.5C18.75 19.0731 18.3777 19.6297 17.6959 20.0558C17.0177 20.4797 16.0652 20.75 15 20.75C13.9348 20.75 12.9823 20.4797 12.3041 20.0558C11.6223 19.6297 11.25 19.0731 11.25 18.5C11.25 17.9269 11.6223 17.3703 12.3041 16.9442C12.9823 16.5203 13.9348 16.25 15 16.25C16.0652 16.25 17.0177 16.5203 17.6959 16.9442C18.3777 17.3703 18.75 17.9269 18.75 18.5Z" fill="#F8CC33" stroke="#040214" stroke-width="0.5"/>
<path d="M18.75 21.5C18.75 22.0731 18.3777 22.6297 17.6959 23.0558C17.0177 23.4797 16.0652 23.75 15 23.75C13.9348 23.75 12.9823 23.4797 12.3041 23.0558C11.6223 22.6297 11.25 22.0731 11.25 21.5C11.25 20.9269 11.6223 20.3703 12.3041 19.9442C12.9823 19.5203 13.9348 19.25 15 19.25C16.0652 19.25 17.0177 19.5203 17.6959 19.9442C18.3777 20.3703 18.75 20.9269 18.75 21.5Z" fill="#F8CC33" stroke="#040214" stroke-width="0.5"/>
<path d="M18.75 24.5C18.75 25.0731 18.3777 25.6297 17.6959 26.0558C17.0177 26.4797 16.0652 26.75 15 26.75C13.9348 26.75 12.9823 26.4797 12.3041 26.0558C11.6223 25.6297 11.25 25.0731 11.25 24.5C11.25 23.9269 11.6223 23.3703 12.3041 22.9442C12.9823 22.5203 13.9348 22.25 15 22.25C16.0652 22.25 17.0177 22.5203 17.6959 22.9442C18.3777 23.3703 18.75 23.9269 18.75 24.5Z" fill="#F8CC33" stroke="#040214" stroke-width="0.5"/>
<path d="M18.75 26.5C18.75 26.6099 18.6915 26.7446 18.5198 26.8968C18.3484 27.0487 18.0862 27.197 17.7406 27.3266C17.0514 27.585 16.0825 27.75 15 27.75C13.9175 27.75 12.9486 27.585 12.2594 27.3266C11.9138 27.197 11.6516 27.0487 11.4802 26.8968C11.3085 26.7446 11.25 26.6099 11.25 26.5C11.25 26.3901 11.3085 26.2554 11.4802 26.1032C11.6516 25.9513 11.9138 25.803 12.2594 25.6734C12.9486 25.415 13.9175 25.25 15 25.25C16.0825 25.25 17.0514 25.415 17.7406 25.6734C18.0862 25.803 18.3484 25.9513 18.5198 26.1032C18.6915 26.2554 18.75 26.3901 18.75 26.5Z" fill="#F8CC33" stroke="#040214" stroke-width="0.5"/>
<path d="M15.75 2.01036L25.8744 7.85566C26.3385 8.12361 26.6244 8.6188 26.6244 9.1547V20.8453C26.6244 21.3812 26.3385 21.8764 25.8744 22.1443L15.75 27.9896C15.2859 28.2576 14.7141 28.2576 14.25 27.9896L4.12564 22.1443C3.66154 21.8764 3.37564 21.3812 3.37564 20.8453V9.1547C3.37564 8.6188 3.66154 8.12361 4.12564 7.85566L14.25 2.01036C14.7141 1.74241 15.2859 1.74241 15.75 2.01036Z" stroke="#F8CC33"/>
<path d="M5.495 10.2H9.62C10.32 10.2 10.88 10.26 11.3 10.38C11.73 10.49 12.06 10.665 12.29 10.905C12.53 11.135 12.69 11.425 12.77 11.775C12.85 12.115 12.89 12.51 12.89 12.96C12.89 13.28 12.855 13.57 12.785 13.83C12.715 14.09 12.6 14.315 12.44 14.505C12.29 14.685 12.085 14.83 11.825 14.94C11.575 15.05 11.265 15.105 10.895 15.105V15.165C11.295 15.165 11.645 15.23 11.945 15.36C12.255 15.49 12.51 15.675 12.71 15.915C12.92 16.145 13.075 16.42 13.175 16.74C13.285 17.06 13.34 17.41 13.34 17.79C13.34 18.26 13.295 18.69 13.205 19.08C13.115 19.47 12.94 19.81 12.68 20.1C12.43 20.38 12.07 20.6 11.6 20.76C11.14 20.92 10.53 21 9.77 21H5.495V20.1L6.89 19.8V11.4L5.495 11.1V10.2ZM9.83 19.875C10.23 19.875 10.555 19.825 10.805 19.725C11.065 19.625 11.265 19.485 11.405 19.305C11.555 19.125 11.655 18.91 11.705 18.66C11.755 18.4 11.78 18.11 11.78 17.79C11.78 17.45 11.75 17.155 11.69 16.905C11.64 16.645 11.545 16.43 11.405 16.26C11.265 16.09 11.075 15.96 10.835 15.87C10.605 15.78 10.305 15.735 9.935 15.735H8.375V19.875H9.83ZM11.33 12.96C11.33 12.71 11.305 12.485 11.255 12.285C11.215 12.075 11.135 11.9 11.015 11.76C10.895 11.62 10.725 11.515 10.505 11.445C10.295 11.365 10.02 11.325 9.68 11.325H8.375V14.61H9.77C10.08 14.61 10.335 14.575 10.535 14.505C10.745 14.425 10.905 14.315 11.015 14.175C11.135 14.035 11.215 13.865 11.255 13.665C11.305 13.455 11.33 13.22 11.33 12.96ZM24.4084 11.1L23.0134 11.4V19.8L24.4084 20.1V21H20.1334V20.1L21.5284 19.8V16.155H17.1934V19.8L18.5884 20.1V21H14.3134V20.1L15.7084 19.8V11.4L14.3134 11.1V10.2H18.5884V11.1L17.1934 11.4V14.91H21.5284V11.4L20.1334 11.1V10.2H24.4084V11.1Z" fill="#F5F5F5"/>
</svg>
